<svg width="2000" height="411.28754" viewBox="0 0 2000 411.28754" fill="none" xmlns="http://www.w3.org/2000/svg">
  <path d="m 125.769,151.60155 -23.87,23.971 -36.2603,-35.291 69.8123,-70.243103 48.374,21.7383 -27.962,29.588803 c 0,0 29.997,28.881 46.843,45.597 l 2.132,-2.466 c 2.959,-3.424 8.094,-12.368 10.804,-18.836 17.946,-42.768 -2.897,-93.137503 -48.193,-116.468603 -23.195,-11.949 -48.879,-15.384 -76.1325,-10.1861 -8.82,1.6835 -8.3665,0.4251 1.7005,-4.7728 17.583,-9.0694503 32.185,-12.6688903 51.662,-12.7312393 14.981,-0.051016 21.302,0.912609 35.354,5.384979 19.097,6.0765603 33.789,15.2763603 49.757,31.1591603 20.06,19.9528 31.641,41.6288 35.864,67.102603 2.392,37.763 -3.498,62.647 -24.561,98.71 l 24.754,24.714 -31.415,31.822 -108.669,-108.799 z" fill="#c11616"/>
  <path d="m 196.898,2.5624267 c 19.528,8.7095203 36.671,21.7930203 50.034,38.1855203 H 2000 V 2.5624267 Z m 71.598,75.9004203 c 4.534,12.283 7.19,25.149703 7.881,38.187703 H 2000 V 78.462847 Z m 4.492,75.306703 c -3.221,13.455 -8.572,26.339 -15.861,38.187 H 2000 v -38.187 z" fill="#c11616"/>
  <path d="m 145.863,229.67155 v 3.469 l 27.182,-3.469 z m 131.006,0 -38.765,38.186 H 2000 v -38.186 z" fill="#c11616"/>
  <path d="m 141.356,249.17255 19.692,-4.092 10.073,15.571 c 9.875,-3.35 19.21,-7.868 27.843,-13.395 l -35.971,-36.017 c -9.398,3.917 -19.704,6.088 -30.519,6.088 -43.9697,0 -79.6183,-35.773 -79.6183,-79.902 0,-20.145 7.4313,-38.544803 19.6864,-52.602503 L 36.236,50.761647 c -7.3349,7.8337 -13.7006,16.5914 -18.9098,26.0803 2.1426,2.2164 13.247,13.7799 13.247,13.7799 l -7.2952,18.745703 -18.39396,-0.034 c -2.21068,9.455 -3.38404,19.306 -3.38404,29.436 0,1.547 0.03968,3.083 0.090697,4.614 2.136983,0.578 17.555003,4.801 17.555003,4.801 l 3.3047,19.839 -15.18563,8.99 c 3.39537,10.952 8.21913,21.274 14.24473,30.757 2.4941,-0.725 16.8521,-4.863 16.8521,-4.863 l 13.1394,15.225 -8.2872,15.554 c 8.5876,7.879 18.2466,14.602 28.7331,19.925 0.6235,-0.675 12.2551,-13.021 12.2551,-13.021 l 19.068,6.405 0.805,17.839 c 8.344,1.706 16.983,2.602 25.831,2.602 2.449,0 4.869,-0.091 7.284,-0.227 0.493,-2.177 4.155,-18.026 4.155,-18.026 z" fill="#c11616"/>
</svg>
